<svg xmlns="http://www.w3.org/2000/svg" width="40" height="39.367" viewBox="0 0 40 39.367">
  <g id="Groupe_1" data-name="Groupe 1" transform="translate(-735 -378)">
    <circle id="Ellipse_1" data-name="Ellipse 1" cx="1.5" cy="1.5" r="1.5" transform="translate(763 393)" fill="#fff"/>
    <ellipse id="Ellipse_11" data-name="Ellipse 11" cx="1.5" cy="1" rx="1.5" ry="1" transform="translate(750 400)" fill="#fff"/>
    <ellipse id="Ellipse_12" data-name="Ellipse 12" cx="1.5" cy="1" rx="1.5" ry="1" transform="translate(743 400)" fill="#fff"/>
    <ellipse id="Ellipse_10" data-name="Ellipse 10" cx="1" cy="1.5" rx="1" ry="1.5" transform="translate(757 393)" fill="#fff"/>
    <path id="Tracé_1" data-name="Tracé 1" d="M33.216,3.076h-2V1.538a1.538,1.538,0,1,0-3.076,0V3.076h-7V1.538a1.538,1.538,0,0,0-3.076,0V3.076h-6.92V1.538a1.538,1.538,0,0,0-3.076,0V3.076H6.151A6.158,6.158,0,0,0,0,9.227V33.216a6.158,6.158,0,0,0,6.151,6.151H17.915a1.538,1.538,0,0,0,0-3.076H6.151a3.079,3.079,0,0,1-3.076-3.076V9.227A3.079,3.079,0,0,1,6.151,6.151H8.073V7.689a1.538,1.538,0,0,0,3.076,0V6.151h6.92V7.689a1.538,1.538,0,0,0,3.076,0V6.151h7V7.689a1.538,1.538,0,0,0,3.076,0V6.151h2a3.079,3.079,0,0,1,3.076,3.076v8.765a1.538,1.538,0,1,0,3.076,0V9.227A6.158,6.158,0,0,0,33.216,3.076Z" transform="translate(735 378)" fill="#fff"/>
    <circle id="Ellipse_4" data-name="Ellipse 4" cx="1.5" cy="1.5" r="1.5" transform="translate(743 393)" fill="#fff"/>
    <circle id="Ellipse_6" data-name="Ellipse 6" cx="1.5" cy="1.5" r="1.5" transform="translate(743 406)" fill="#fff"/>
    <circle id="Ellipse_7" data-name="Ellipse 7" cx="1.5" cy="1.5" r="1.5" transform="translate(750 406)" fill="#fff"/>
    <circle id="Ellipse_8" data-name="Ellipse 8" cx="1.5" cy="1.5" r="1.5" transform="translate(750 393)" fill="#fff"/>
    <text id="AS" transform="translate(755 413)" fill="#fff" font-size="16" font-family="IBMPlexMono-Bold, IBM Plex Mono" font-weight="700"><tspan x="0" y="0">AS</tspan></text>
  </g>
</svg>
