<?xml version="1.0" standalone="no"?>
<!DOCTYPE svg PUBLIC "-//W3C//DTD SVG 20010904//EN"
 "http://www.w3.org/TR/2001/REC-SVG-20010904/DTD/svg10.dtd">
<svg version="1.0" xmlns="http://www.w3.org/2000/svg"
 width="640.000000pt" height="640.000000pt" viewBox="0 0 640.000000 640.000000"
 preserveAspectRatio="xMidYMid meet">
<metadata>
Created by potrace 1.11, written by Peter Selinger 2001-2013
</metadata>
<g transform="translate(0.000000,640.000000) scale(0.100000,-0.100000)"
fill="#000000" stroke="none">
<path d="M1457 6336 c-55 -20 -103 -61 -134 -114 -27 -45 -28 -53 -32 -204 -3
-138 -5 -158 -20 -158 -9 -1 -108 -3 -221 -5 -113 -2 -216 -6 -230 -10 -14 -3
-38 -9 -55 -12 -111 -19 -305 -114 -404 -198 -70 -59 -163 -163 -203 -226 -31
-50 -87 -159 -81 -159 3 0 1 -6 -4 -12 -13 -16 -49 -137 -62 -208 -12 -66 -10
-4131 2 -4170 4 -14 10 -34 12 -45 11 -48 15 -63 30 -105 24 -68 93 -204 115
-228 11 -12 20 -24 20 -27 0 -9 45 -59 119 -132 129 -128 307 -219 506 -260
22 -4 508 -8 1080 -8 995 0 1042 1 1075 19 47 25 98 74 116 113 36 75 29 192
-15 245 -9 11 -23 28 -32 38 -8 11 -40 31 -69 46 l-54 27 -1005 2 c-553 1
-1022 6 -1041 10 -118 24 -270 145 -324 256 -57 119 -55 6 -52 2159 1 1092 5
1996 9 2010 16 58 24 78 51 129 42 81 131 165 218 206 94 44 117 47 334 50
l182 2 4 -156 c5 -174 13 -204 73 -264 99 -99 267 -93 358 14 48 56 60 105 62
259 2 74 3 137 4 140 0 3 249 6 551 6 l550 0 1 -136 c1 -151 3 -169 25 -215
26 -55 69 -95 129 -120 127 -51 252 -2 315 125 20 40 23 61 24 195 l1 150 559
0 559 0 2 -155 c1 -135 4 -160 22 -195 74 -143 245 -183 371 -88 37 28 80 88
88 124 4 13 7 89 8 169 l1 145 185 0 c171 1 267 -9 286 -28 4 -4 15 -7 24 -7
31 0 111 -52 170 -109 60 -59 92 -110 124 -201 19 -53 20 -89 22 -826 2 -757
2 -772 23 -818 36 -83 116 -143 201 -150 49 -4 131 16 159 40 12 10 31 26 41
34 10 9 29 36 42 60 l23 45 0 785 c0 432 -3 808 -7 835 -36 241 -183 485 -386
638 -34 26 -64 47 -67 47 -2 0 -27 13 -54 30 -60 35 -194 84 -277 100 -33 7
-156 14 -274 16 -118 2 -219 3 -225 4 -6 0 -10 57 -11 148 -1 126 -4 153 -21
192 -29 61 -61 95 -119 123 -96 47 -205 28 -281 -50 -59 -61 -72 -113 -70
-276 1 -71 -2 -131 -6 -134 -6 -3 -1027 -7 -1098 -4 -15 1 -17 17 -16 129 1
155 -6 192 -45 252 -103 158 -334 142 -424 -30 -15 -28 -20 -66 -24 -194 l-5
-158 -551 -2 -550 -1 1 125 c1 211 -29 284 -139 340 -66 33 -125 38 -189 16z"/>
<path d="M1445 3935 c-22 -8 -47 -17 -55 -21 -8 -3 -28 -23 -45 -45 -16 -22
-34 -45 -40 -52 -16 -21 -20 -39 -19 -112 1 -80 16 -117 70 -169 47 -45 119
-70 187 -63 54 5 107 24 107 39 0 4 5 8 10 8 16 0 49 37 72 82 59 113 8 268
-108 323 -49 23 -130 28 -179 10z"/>
<path d="M2540 3927 c-25 -11 -58 -37 -75 -59 -16 -21 -34 -44 -40 -51 -16
-20 -19 -38 -19 -112 1 -78 14 -112 66 -164 120 -122 327 -77 391 85 34 88 7
199 -63 261 -68 61 -177 77 -260 40z"/>
<path d="M3624 3931 c-71 -43 -107 -130 -100 -242 13 -227 204 -299 289 -109
23 52 31 160 15 217 -23 87 -89 153 -151 153 -12 0 -36 -9 -53 -19z"/>
<path d="M4655 3942 c-4 -4 -10 -7 -13 -7 -16 -1 -59 -29 -90 -59 -48 -45 -71
-104 -68 -173 5 -99 51 -169 139 -211 51 -25 155 -24 202 1 178 97 176 347 -4
433 -36 18 -153 29 -166 16z"/>
<path d="M1411 2811 c-30 -11 -69 -35 -90 -55 -32 -32 -36 -42 -36 -87 1 -47
4 -55 42 -90 130 -121 410 -70 431 79 1 13 -6 43 -18 66 -42 87 -206 130 -329
87z"/>
<path d="M2550 2816 c-59 -17 -79 -28 -112 -63 -48 -50 -46 -131 5 -174 56
-48 96 -62 192 -63 100 -1 151 15 203 64 74 70 39 179 -73 226 -52 21 -158 27
-215 10z"/>
<path d="M5929 2645 c-2 -2 -29 -6 -59 -10 -30 -4 -64 -12 -75 -18 -11 -6 -22
-10 -25 -9 -13 4 -87 -22 -131 -46 -77 -41 -143 -101 -186 -165 -21 -33 -38
-62 -39 -65 0 -4 -6 -20 -13 -37 -22 -51 -38 -166 -35 -253 7 -219 117 -369
336 -455 62 -25 260 -79 338 -92 19 -3 53 -11 75 -17 22 -6 49 -13 60 -15 38
-6 148 -68 168 -94 22 -30 33 -101 23 -151 -6 -33 -56 -98 -75 -98 -5 0 -11
-4 -13 -9 -1 -5 -34 -18 -73 -29 -54 -15 -96 -19 -185 -16 -63 1 -126 5 -140
8 -14 4 -41 9 -60 12 -19 3 -48 9 -65 15 -138 42 -183 60 -295 113 -36 17 -68
32 -72 34 -5 2 -8 -87 -8 -197 0 -188 1 -201 20 -211 25 -13 254 -79 300 -86
19 -3 44 -8 55 -11 11 -4 29 -7 40 -8 11 -1 52 -6 90 -10 119 -15 364 -9 473
10 l42 8 -2 551 -3 551 -120 27 c-66 15 -136 30 -155 33 -19 3 -62 12 -96 20
-169 39 -230 93 -220 193 7 74 46 128 106 147 3 1 12 5 20 8 43 18 117 25 230
22 123 -3 144 -5 208 -19 l32 -8 0 176 c0 199 11 178 -95 191 -56 8 -371 16
-376 10z"/>
<path d="M3899 2597 c-11 -19 -79 -205 -82 -222 -1 -5 -4 -12 -7 -15 -3 -3
-11 -21 -17 -40 -12 -39 -209 -574 -223 -605 -10 -23 -107 -289 -141 -385 -12
-36 -26 -69 -29 -75 -4 -5 -15 -35 -25 -65 -10 -30 -23 -68 -30 -85 -8 -16
-32 -82 -55 -145 -22 -63 -44 -124 -49 -135 -5 -11 -14 -32 -20 -48 l-11 -27
248 2 c156 2 247 7 247 13 1 12 23 82 35 110 5 11 23 64 42 118 l33 97 377 0
376 0 22 -68 c11 -37 24 -74 29 -82 4 -8 20 -54 36 -102 l29 -88 243 0 243 0
-11 28 c-26 66 -193 518 -251 677 -22 61 -43 119 -48 130 -13 33 -35 90 -36
95 0 3 -6 19 -13 35 -14 35 -44 118 -96 260 -20 55 -42 116 -50 135 -8 19 -50
134 -95 255 -44 121 -84 227 -89 235 -7 13 -51 15 -290 15 -263 0 -283 -1
-292 -18z m358 -607 c30 -85 55 -159 57 -165 7 -27 18 -62 26 -80 6 -16 80
-234 96 -283 2 -7 5 -16 6 -20 2 -4 -111 -7 -249 -7 -163 0 -253 3 -253 10 1
5 8 28 16 50 8 22 17 47 19 55 3 13 112 327 166 480 11 30 21 62 23 70 11 43
29 74 34 60 3 -8 29 -85 59 -170z"/>
<path d="M1445 1858 c-55 -15 -138 -100 -152 -156 -44 -171 67 -315 237 -308
74 3 109 18 162 71 96 96 85 258 -23 349 -18 16 -44 32 -58 38 -39 15 -121 18
-166 6z"/>
<path d="M2570 1859 c-53 -16 -116 -69 -141 -118 -28 -57 -33 -149 -11 -202
20 -46 72 -103 116 -127 21 -11 55 -17 107 -17 66 0 81 3 119 29 59 39 86 73
106 129 29 86 1 192 -67 256 -53 49 -155 71 -229 50z"/>
</g>
</svg>
